<svg xmlns="http://www.w3.org/2000/svg">
  <symbol id="logo" viewBox="0 0 360 110">
    <path
      d="M80.648 88.049l2.179 2.742q-1.968 1.406-5.554 4.008-18.493 13.57-28.407 13.57-20.953 0-33.398-13.078Q3.023 82.213 3.023 60.275q0-14.695 6.187-26.543 6.188-11.847 18.141-20.285 9.14-6.469 15.996-9.139 6.855-2.673 13.957-2.673 6.187 0 11.918 1.722 5.73 1.723 11.004 5.239L70.03 20.83q-5.273-3.305-10.968-4.887-5.696-1.582-12.375-1.582-6.328 0-11.637 1.231-5.309 1.23-7.488 3.058-5.766 4.571-9.106 13.184t-3.34 18.95q0 19.546 12.164 31.851t31.5 12.305q6.258 0 11.743-1.723 5.484-1.723 10.125-5.168z" />
    <path
      d="M356.555 68.603l.422.879q-.528.317-1.512.985-6.891 4.535-9.844 4.535-6.785 0-10.81-4.43-4.026-4.43-4.026-11.918 0-4.746 1.371-8.701t3.446-5.643q3.023-2.355 6.082-3.761 3.058-1.407 5.097-1.407 4.395 0 7.225 3.709t2.83 9.616v.949l-6.961 3.375h-12.691q.597 6.152 4.253 9.58 3.657 3.428 9.598 3.428 1.477 0 2.865-.299 1.389-.299 2.655-.897zm-19.511-14.975h12.692v-.387q0-4.359-2.11-6.961-2.109-2.601-5.59-2.601-.667 0-1.265.105-.598.106-1.195.317-1.266 1.757-1.899 4.148t-.633 5.379zM305.297 67.302l6.187-2.953q1.407 3.235 3.147 4.852 1.74 1.617 3.814 1.617h.457q.774-.949 1.213-2.18.44-1.23.44-2.496 0-1.722-1.02-2.847-1.019-1.125-4.324-2.567l-.352-.14q-9-4.008-9-9.703 0-2.743.879-4.518t2.953-3.182q2.602-1.828 4.834-2.935 2.233-1.108 3.077-1.108 2.812 0 5.15 1.969 2.338 1.969 3.639 5.449l-5.836 3.094q-1.09-3.129-2.795-4.588-1.705-1.459-4.272-1.459-.457 0-.703.018-.246.017-.457.088-.598.773-.932 1.81-.334 1.037-.334 2.057 0 1.652 1.09 2.953t3.446 2.426q.949.457 2.812 1.265 4.43 1.829 5.801 3.411.984 1.089 1.476 2.531.493 1.441.493 3.164 0 3.832-2.479 6.521-2.478 2.69-8.279 5.151-3.867-.071-6.486-2.057-2.62-1.986-3.639-5.643zM292.43 40.443l7.172-.281q-.106 4.254-.159 8.385-.052 4.131-.052 8.314 0 4.184.052 8.385.053 4.201.159 8.349l-7.172.387q0-1.125.017-2.285.018-1.16.053-2.391-2.531 1.829-4.781 3.2-2.25 1.371-4.324 2.285-.317.035-.633.053-.317.017-.95.017-4.851 0-7.136-2.619t-2.285-8.174v-9.14q0-4.36-.036-7.717-.035-3.358-.105-6.768l7.207-.281q-.105 3.375-.158 7.98-.053 4.606-.053 10.442 0 4.324.299 6.082t1.072 2.566q1.055 1.055 2.69 1.67 1.634.615 3.427.615 1.793 0 2.584-.298.791-.299 1.213-1.073 1.16-1.969 1.635-5.08.475-3.111.475-10.881 0-2.531-.053-5.449-.053-2.918-.158-6.293zM263.812 67.092l-8.191 6.609q-.844.633-2.057.967-1.212.334-2.794.334-6.258 0-10.073-4.131-3.814-4.131-3.814-10.916 0-3.024.844-6.24.843-3.217 2.46-6.522l8.93-7.031q.457-.387 1.916-.703 1.459-.317 3.147-.317 6.257 0 9.738 3.78 3.48 3.779 3.48 10.564 0 3.305-.914 6.785-.914 3.481-2.672 6.821zm-4.815 1.196q.914-1.687 1.389-4.306.475-2.62.475-5.889 0-6.434-2.725-10.178-2.725-3.744-7.365-3.744-1.125 0-2.25.228-1.125.229-2.285.651-1.371 1.336-2.127 4.06-.756 2.725-.756 6.452 0 6.574 3.058 10.125 3.059 3.55 8.684 3.55 1.16 0 2.092-.228.932-.229 1.81-.721zM211.922 73.595l-7.207.387q.07-3.129.105-6.767.035-3.639.035-10.705V45.47q0-10.828-.035-15.169-.035-4.342-.105-7.366l7.172-.281q-.035 4.219-.071 6.979-.035 2.759-.035 5.255 0 1.512.035 4.799.036 3.287.036 5.08 2.39-1.793 4.623-3.146 2.232-1.354 4.377-2.338.07 0 .21-.035 1.09-.106 1.583-.106 2.074 0 3.919.791 1.846.791 3.428 2.373 1.055 1.055 1.494 2.778.44 1.722.44 6.082v.949q0 2.355-.035 4.729l-.036 2.373q0 1.933.053 5.502.053 3.568.158 8.876l-7.171.387q.07-2.566.105-6.135.035-3.568.035-12.216 0-4.676-.316-6.346-.317-1.67-1.055-2.443-.984-1.02-2.602-1.618-1.617-.597-3.445-.597-1.933 0-2.707.281-.773.281-1.195 1.018-1.09 1.896-1.547 4.863-.457 2.967-.457 11.079 0 2.317.053 5.267.052 2.949.158 6.46zM189.527 73.631l-7.312.351q.07-4.57.123-8.771.053-4.201.053-7.998 0-3.797-.053-7.998-.053-4.202-.123-8.772l7.312-.281-.211 4.746q2.637-2.742 4.782-4.254 2.144-1.512 3.339-1.512 1.125 0 2.461 1.512 1.336 1.512 2.602 4.254l-6.328 4.465q-.809-1.969-1.863-3.252-1.055-1.283-1.758-1.283-1.301 0-2.233 3.638-.931 3.639-.931 9.299 0 6.047.035 9.404.035 3.358.105 6.452zM176.836 68.603l.422.879q-.528.317-1.512.985-6.891 4.535-9.844 4.535-6.785 0-10.81-4.43-4.026-4.43-4.026-11.918 0-4.746 1.371-8.701 1.372-3.955 3.446-5.643 3.023-2.355 6.082-3.761 3.058-1.407 5.097-1.407 4.395 0 7.225 3.709t2.83 9.616v.949l-6.961 3.375h-12.691q.597 6.152 4.254 9.58 3.656 3.428 9.597 3.428 1.477 0 2.866-.299 1.388-.299 2.654-.897zm-19.51-14.975h12.691v-.387q0-4.359-2.109-6.961-2.11-2.601-5.59-2.601-.668 0-1.266.105-.598.106-1.195.317-1.266 1.757-1.899 4.148-.632 2.391-.632 5.379zM126.105 73.595l-7.207.387q.071-3.199.106-6.75t.035-10.019q0-6.469-.035-10.02-.035-3.551-.106-6.75l7.207-.281q0 1.336-.035 2.865-.035 1.529-.035 1.74 2.391-1.793 4.623-3.146 2.233-1.354 4.377-2.338.07 0 .211-.035 1.09-.106 1.582-.106 2.074 0 3.92.791t3.428 2.373q1.054 1.055 1.494 2.778.439 1.722.439 6.082v.949q0 2.355-.035 4.729l-.035 2.373q0 1.933.053 5.502.053 3.568.158 8.876l-7.172.387q.07-2.566.106-6.135.035-3.568.035-12.216 0-4.676-.317-6.346-.316-1.67-1.054-2.443-.985-1.02-2.602-1.618-1.617-.597-3.445-.597-1.934 0-2.707.281-.774.281-1.196 1.018-1.089 1.896-1.546 4.863-.457 2.967-.457 11.079 0 2.317.052 5.267.053 2.949.158 6.46zM103.711 73.631l-7.313.351q.071-4.57.123-8.771.053-4.201.053-7.998 0-3.797-.053-7.998-.052-4.202-.123-8.772l7.313-.281-.211 4.746q2.637-2.742 4.781-4.254 2.145-1.512 3.34-1.512 1.125 0 2.461 1.512 1.336 1.512 2.602 4.254l-6.329 4.465q-.808-1.969-1.863-3.252-1.055-1.283-1.758-1.283-1.3 0-2.232 3.638-.932 3.639-.932 9.299 0 6.047.035 9.404.036 3.358.106 6.452zM87.645 67.092l-8.192 6.609q-.844.633-2.057.967-1.212.334-2.794.334-6.258 0-10.073-4.131-3.814-4.131-3.814-10.916 0-3.024.844-6.24.843-3.217 2.461-6.522l8.929-7.031q.457-.387 1.916-.703 1.459-.317 3.147-.317 6.258 0 9.738 3.78 3.48 3.779 3.48 10.564 0 3.305-.914 6.785-.914 3.481-2.671 6.821zm-4.816 1.196q.915-1.687 1.389-4.306.475-2.62.475-5.889 0-6.434-2.725-10.178-2.724-3.744-7.365-3.744-1.125 0-2.25.228-1.125.229-2.285.651-1.371 1.336-2.127 4.06-.756 2.725-.756 6.452 0 6.574 3.059 10.125 3.058 3.55 8.683 3.55 1.16 0 2.092-.228.932-.229 1.81-.721z" />
    <path
      d="M348.787 87.992q1.774 0 3.276.595 1.501.595 2.593 1.716t1.706 2.769q.615 1.647.615 3.753 0 .819-.176 1.093-.175.272-.663.272h-13.143q.039 1.872.507 3.257.468 1.384 1.287 2.311.819.926 1.95 1.384 1.131.459 2.535.459 1.307 0 2.252-.303.946-.302 1.629-.653.682-.351 1.14-.653.459-.303.79-.303.429 0 .663.332l.975 1.267q-.643.781-1.54 1.356-.897.575-1.921.945-1.024.371-2.116.556-1.092.185-2.164.185-2.048 0-3.774-.692-1.725-.692-2.983-2.028t-1.96-3.305q-.702-1.969-.702-4.524 0-2.067.634-3.861t1.823-3.11q1.19-1.317 2.906-2.067 1.716-.751 3.861-.751zm.079 2.556q-2.516 0-3.959 1.453-1.443 1.452-1.794 4.026h10.745q0-1.209-.332-2.213-.331-1.004-.975-1.735-.643-.732-1.569-1.131-.927-.4-2.116-.4zM337.145 90.566l-.916 1.248q-.156.215-.312.331-.156.118-.449.118-.292 0-.634-.244-.341-.244-.867-.537-.527-.292-1.278-.536-.75-.244-1.842-.244-1.443 0-2.555.517-1.111.517-1.862 1.492-.751.975-1.131 2.36-.38 1.384-.38 3.1 0 1.794.409 3.188.41 1.395 1.151 2.34.741.946 1.803 1.443 1.063.498 2.389.498 1.268 0 2.087-.303.819-.302 1.365-.673.546-.37.897-.672.351-.303.702-.303.448 0 .663.332l.975 1.267q-1.287 1.58-3.218 2.311-1.93.731-4.075.731-1.853 0-3.442-.682-1.589-.683-2.759-1.979-1.17-1.297-1.843-3.189-.673-1.891-.673-4.309 0-2.204.614-4.076.615-1.871 1.794-3.227 1.18-1.355 2.916-2.115 1.735-.761 3.978-.761 2.067 0 3.666.673 1.599.673 2.827 1.901zM317.411 82.103q0 .507-.205.946-.204.439-.546.78-.341.341-.789.536-.449.195-.956.195-.507 0-.946-.195-.438-.195-.78-.536-.341-.341-.536-.78t-.195-.946q0-.507.195-.965.195-.458.536-.8.342-.341.78-.536.439-.195.946-.195.507 0 .956.195.448.195.789.536.342.342.546.8.205.458.205.965zm-4.251 6.201h3.471v19.754h-3.471V88.304zM304.21 108.369q-2.34 0-3.598-1.306-1.258-1.307-1.258-3.764V91.21h-2.379q-.312 0-.526-.186-.215-.185-.215-.575v-1.385l3.237-.409.8-6.104q.039-.292.253-.477.215-.185.546-.185h1.755v6.805h5.655v2.516h-5.655v11.855q0 1.248.605 1.853.604.604 1.56.604.546 0 .945-.146.4-.146.693-.321.292-.176.497-.322.205-.146.361-.146.273 0 .487.331l1.014 1.657q-.897.839-2.164 1.317-1.268.477-2.613.477zM294.401 90.566l-.916 1.248q-.156.215-.312.331-.156.118-.449.118-.292 0-.634-.244-.341-.244-.867-.537-.527-.292-1.278-.536-.75-.244-1.842-.244-1.443 0-2.555.517-1.111.517-1.862 1.492-.751.975-1.131 2.36-.38 1.384-.38 3.1 0 1.794.409 3.188.41 1.395 1.151 2.34.741.946 1.803 1.443 1.063.498 2.389.498 1.268 0 2.087-.303.819-.302 1.365-.673.546-.37.897-.672.351-.303.702-.303.448 0 .663.332l.975 1.267q-1.287 1.58-3.218 2.311-1.93.731-4.075.731-1.853 0-3.442-.682-1.589-.683-2.759-1.979-1.17-1.297-1.843-3.189-.673-1.891-.673-4.309 0-2.204.614-4.076.615-1.871 1.794-3.227 1.18-1.355 2.916-2.115 1.735-.761 3.978-.761 2.067 0 3.666.673 1.599.673 2.827 1.901zM274.745 95.422v12.636h-1.54q-.507 0-.819-.156-.312-.157-.41-.663l-.39-1.833q-.78.701-1.521 1.257-.741.556-1.56.936-.819.38-1.745.575-.926.195-2.057.195-1.151 0-2.155-.322-1.004-.323-1.745-.969-.741-.646-1.18-1.634-.439-.988-.439-2.338 0-1.174.644-2.26.643-1.086 2.076-1.927 1.434-.842 3.754-1.38 2.321-.538 5.675-.538v-1.55q0-2.316-.985-3.503-.985-1.187-2.915-1.187-1.268 0-2.136.322-.867.322-1.501.721-.634.4-1.092.722-.458.322-.907.322-.351 0-.614-.186-.263-.185-.419-.458l-.624-1.112q1.638-1.579 3.529-2.359 1.892-.78 4.193-.78 1.657 0 2.944.546t2.165 1.521q.877.975 1.326 2.36.448 1.384.448 3.042zm-9.008 10.511q.917 0 1.677-.185.761-.185 1.434-.526.672-.342 1.287-.829.614-.488 1.199-1.112v-4.075q-2.399 0-4.076.304-1.677.304-2.73.794-1.053.49-1.53 1.157-.478.667-.478 1.491 0 .785.253 1.353.254.569.683.932.429.363 1.014.53.585.166 1.267.166zM247.991 108.058h-3.471V88.304h1.989q.566 0 .78.215.215.214.293.74l.234 3.081q1.014-2.067 2.505-3.227 1.492-1.16 3.501-1.16.819 0 1.482.185.663.186 1.228.517l-.448 2.593q-.137.488-.605.488-.273 0-.838-.185-.566-.185-1.58-.185-1.813 0-3.032 1.053t-2.038 3.061v12.578zM229.876 97.605h-4.485v10.453h-3.764V80.114h8.249q2.652 0 4.611.614 1.96.614 3.247 1.746 1.287 1.13 1.921 2.729.634 1.599.634 3.569 0 1.95-.683 3.568-.682 1.619-1.999 2.789-1.316 1.17-3.266 1.823t-4.465.653zm-4.484-14.506v11.505h4.485q1.618 0 2.857-.429 1.238-.429 2.076-1.199.839-.771 1.268-1.843.429-1.073.429-2.36 0-2.671-1.648-4.173-1.648-1.501-4.982-1.501h-4.485zM203.57 79.334h3.471v28.724h-3.471V79.334zM197.915 95.422v12.636h-1.54q-.507 0-.819-.156-.312-.157-.41-.663l-.39-1.833q-.78.701-1.521 1.257-.741.556-1.56.936-.819.38-1.745.575-.926.195-2.057.195-1.151 0-2.155-.322-1.004-.323-1.745-.969-.741-.646-1.18-1.634-.439-.988-.439-2.338 0-1.174.644-2.26.643-1.086 2.076-1.927 1.434-.842 3.754-1.38 2.321-.538 5.675-.538v-1.55q0-2.316-.985-3.503-.985-1.187-2.915-1.187-1.268 0-2.136.322-.867.322-1.501.721-.634.4-1.092.722-.458.322-.907.322-.351 0-.614-.186-.263-.185-.419-.458l-.624-1.112q1.638-1.579 3.529-2.359 1.892-.78 4.193-.78 1.657 0 2.944.546t2.165 1.521q.877.975 1.326 2.36.448 1.384.448 3.042zm-9.008 10.511q.917 0 1.677-.185.761-.185 1.434-.526.672-.342 1.287-.829.614-.488 1.199-1.112v-4.075q-2.399 0-4.076.304-1.677.304-2.73.794-1.053.49-1.53 1.157-.478.667-.478 1.491 0 .785.253 1.353.254.569.683.932.429.363 1.014.53.585.166 1.267.166zM174.847 108.369q-2.34 0-3.598-1.306-1.258-1.307-1.258-3.764V91.21h-2.379q-.312 0-.526-.186-.215-.185-.215-.575v-1.385l3.237-.409.8-6.104q.039-.292.253-.477.215-.185.546-.185h1.755v6.805h5.655v2.516h-5.655v11.855q0 1.248.605 1.853.604.604 1.56.604.546 0 .945-.146.4-.146.693-.321.292-.176.497-.322.205-.146.361-.146.273 0 .487.331l1.014 1.657q-.897.839-2.164 1.317-1.268.477-2.613.477zM150.647 108.058h-3.471V88.304h2.067q.741 0 .936.721l.273 2.146q1.287-1.424 2.876-2.302 1.59-.877 3.676-.877 1.619 0 2.857.536 1.238.536 2.067 1.521.829.985 1.258 2.37.429 1.384.429 3.061v12.578h-3.471V95.48q0-2.242-1.024-3.481-1.024-1.238-3.13-1.238-1.54 0-2.876.741-1.336.741-2.467 2.008v14.548zM134.56 87.992q1.774 0 3.276.595 1.501.595 2.593 1.716t1.706 2.769q.615 1.647.615 3.753 0 .819-.176 1.093-.175.272-.663.272h-13.143q.039 1.872.507 3.257.468 1.384 1.287 2.311.819.926 1.95 1.384 1.131.459 2.535.459 1.307 0 2.252-.303.946-.302 1.629-.653.682-.351 1.14-.653.459-.303.79-.303.429 0 .663.332l.975 1.267q-.643.781-1.54 1.356-.897.575-1.921.945-1.024.371-2.116.556-1.092.185-2.164.185-2.048 0-3.774-.692-1.725-.692-2.983-2.028t-1.96-3.305q-.702-1.969-.702-4.524 0-2.067.634-3.861t1.823-3.11q1.19-1.317 2.906-2.067 1.716-.751 3.861-.751zm.079 2.556q-2.516 0-3.959 1.453-1.443 1.452-1.794 4.026h10.745q0-1.209-.332-2.213-.331-1.004-.975-1.735-.643-.732-1.569-1.131-.927-.4-2.116-.4zM122.138 94.095q0 3.14-.994 5.714-.995 2.574-2.808 4.407-1.814 1.833-4.349 2.837-2.535 1.005-5.616 1.005H97.919V80.114h10.452q3.081 0 5.616 1.004 2.535 1.004 4.349 2.847 1.813 1.843 2.808 4.417.994 2.574.994 5.713zm-3.879.002q0-2.574-.702-4.602-.702-2.028-1.989-3.432-1.287-1.404-3.12-2.145-1.833-.741-4.076-.741h-6.649v21.82h6.649q2.243 0 4.076-.741 1.833-.741 3.12-2.135 1.287-1.394 1.989-3.422.702-2.028.702-4.602z" />
  </symbol>
  <symbol id="facebook" viewBox="0 0 24 24">
    <path
      d="M23.9981 11.9991C23.9981 5.37216 18.626 0 11.9991 0C5.37216 0 0 5.37216 0 11.9991C0 17.9882 4.38789 22.9522 10.1242 23.8524V15.4676H7.07758V11.9991H10.1242V9.35553C10.1242 6.34826 11.9156 4.68714 14.6564 4.68714C15.9692 4.68714 17.3424 4.92149 17.3424 4.92149V7.87439H15.8294C14.3388 7.87439 13.8739 8.79933 13.8739 9.74824V11.9991H17.2018L16.6698 15.4676H13.8739V23.8524C19.6103 22.9522 23.9981 17.9882 23.9981 11.9991Z" />
  </symbol>
  <symbol id="twitter" viewBox="0 0 24 24">
    <path
      d="M23.954 4.569c-.885.389-1.83.654-2.825.775 1.014-.611 1.794-1.574 2.163-2.723-.951.555-2.005.959-3.127 1.184-.896-.959-2.173-1.559-3.591-1.559-2.717 0-4.92 2.203-4.92 4.917 0 .39.045.765.127 1.124C7.691 8.094 4.066 6.13 1.64 3.161c-.427.722-.666 1.561-.666 2.475 0 1.71.87 3.213 2.188 4.096-.807-.026-1.566-.248-2.228-.616v.061c0 2.385 1.693 4.374 3.946 4.827-.413.111-.849.171-1.296.171-.314 0-.615-.03-.916-.086.631 1.953 2.445 3.377 4.604 3.417-1.68 1.319-3.809 2.105-6.102 2.105-.39 0-.779-.023-1.17-.067 2.189 1.394 4.768 2.209 7.557 2.209 9.054 0 13.999-7.496 13.999-13.986 0-.209 0-.42-.015-.63.961-.689 1.8-1.56 2.46-2.548l-.047-.02z" />
  </symbol>
  <symbol id="whatsapp" viewBox="0 0 24 24">
    <path
      d="M17.472 14.382c-.297-.149-1.758-.867-2.03-.967-.273-.099-.471-.148-.67.15-.197.297-.767.966-.94 1.164-.173.199-.347.223-.644.075-.297-.15-1.255-.463-2.39-1.475-.883-.788-1.48-1.761-1.653-2.059-.173-.297-.018-.458.13-.606.134-.133.298-.347.446-.52.149-.174.198-.298.298-.497.099-.198.05-.371-.025-.52-.075-.149-.669-1.612-.916-2.207-.242-.579-.487-.5-.669-.51-.173-.008-.371-.01-.57-.01-.198 0-.52.074-.792.372-.272.297-1.04 1.016-1.04 2.479 0 1.462 1.065 2.875 1.213 3.074.149.198 2.096 3.2 5.077 4.487.709.306 1.262.489 1.694.625.712.227 1.36.195 1.871.118.571-.085 1.758-.719 2.006-1.413.248-.694.248-1.289.173-1.413-.074-.124-.272-.198-.57-.347m-5.421 7.403h-.004a9.87 9.87 0 01-5.031-1.378l-.361-.214-3.741.982.998-3.648-.235-.374a9.86 9.86 0 01-1.51-5.26c.001-5.45 4.436-9.884 9.888-9.884 2.64 0 5.122 1.03 6.988 2.898a9.825 9.825 0 012.893 6.994c-.003 5.45-4.437 9.884-9.885 9.884m8.413-18.297A11.815 11.815 0 0012.05 0C5.495 0 .16 5.335.157 11.892c0 2.096.547 4.142 1.588 5.945L.057 24l6.305-1.654a11.882 11.882 0 005.683 1.448h.005c6.554 0 11.89-5.335 11.893-11.893a11.821 11.821 0 00-3.48-8.413Z" />
  </symbol>
  <symbol id="email" viewBox="0 0 20 20">
    <path
      d="M14.608,12.172c0,0.84,0.239,1.175,0.864,1.175c1.393,0,2.28-1.775,2.28-4.727  c0-4.512-3.288-6.672-7.393-6.672c-4.223,0-8.064,2.832-8.064,8.184c0,5.112,3.36,7.896,8.52,7.896c1.752,0,2.928-0.192,4.727-0.792  l0.386,1.607c-1.776,0.577-3.674,0.744-5.137,0.744c-6.768,0-10.393-3.72-10.393-9.456c0-5.784,4.201-9.72,9.985-9.72  c6.024,0,9.215,3.6,9.215,8.016c0,3.744-1.175,6.6-4.871,6.6c-1.681,0-2.784-0.672-2.928-2.161  c-0.432,1.656-1.584,2.161-3.145,2.161c-2.088,0-3.84-1.609-3.84-4.848c0-3.264,1.537-5.28,4.297-5.28  c1.464,0,2.376,0.576,2.782,1.488l0.697-1.272h2.016v7.057C14.606,12.172,14.608,12.172,14.608,12.172z M11.657,9.004  c0-1.319-0.985-1.872-1.801-1.872c-0.888,0-1.871,0.719-1.871,2.832c0,1.68,0.744,2.616,1.871,2.616  c0.792,0,1.801-0.504,1.801-1.896V9.004z" />
  </symbol>
</svg>
