<svg version="1" xmlns="http://www.w3.org/2000/svg" width="682.667" height="682.667" viewBox="0 0 512.000000 512.000000"><path d="M305.8 40.5c-.2.2-2.3.6-4.8.9-2.5.3-5.6.8-7 1.1-1.4.3-3.6.7-5 1-10.4 1.9-35.1 11.3-50.5 19.3-8.6 4.4-25.4 14.1-26.5 15.2-.3.3-4.3 3.1-9 6.2-28.2 18.8-60.7 49.9-78.2 74.8-18.9 26.8-29.4 56.2-32.6 90.8-1.6 17.3-.7 49.8 1.8 64.2.5 3 1.2 7.1 1.5 9 1.7 10.3 5.7 24.2 10.2 36 3.1 8 12 25.9 13.9 28.1.8.8 1.4 1.9 1.4 2.2 0 1.2 10 14.9 15.4 21.2 15.6 18.2 35.9 33.9 56.6 43.7 7.3 3.4 25.9 10.2 31 11.2 1.4.3 5.7 1.2 9.5 2 8.8 1.9 12.3 2.4 21 3.3 13.6 1.4 51.5.6 56.6-1.1.8-.3 2.8-.7 4.4-1 13.3-2.2 22.5-6.7 37.6-18.5 2.6-2 5.9-4.5 7.5-5.6 2.4-1.7 20.1-15.5 30.5-23.7 1.9-1.5 9.3-7.4 16.5-13.1l13.2-10.3-4-6c-2.2-3.2-4.2-6.1-4.4-6.3-.2-.2-5.7 2.3-12.1 5.7-29.2 15-49.3 20.1-78.8 20-27.8-.1-49.2-4.7-71.1-15.4-9.5-4.6-21.9-12.3-27.6-17.1-14.4-12.1-29.4-29.4-38.2-44-10.7-17.8-20-44.6-23.1-66.3-1.8-12.9-2-17.2-2-37 0-22.6.4-27.5 3.6-43.2 5.1-25.8 18.2-53.5 28.7-61.1 12.3-8.8 31.8-16.9 46.7-19.3 2.1-.3 4.7-.8 5.9-1.1 3.9-.9 31-1.2 37.6-.3 24.8 3.3 41 9.2 60.3 22l8.8 5.8 7.2-6c4-3.2 8.3-6.9 9.7-8.1 1.4-1.2 6.6-5.5 11.5-9.6 5-4.1 10.1-8.5 11.5-9.7 1.4-1.3 7.1-6.1 12.8-10.8l10.2-8.5-8.2-6.4c-20.9-16.3-44.6-27.7-66.7-32.2-7-1.4-32.3-2.9-33.3-2z"/></svg>
